<svg width="686" height="412" viewBox="0 0 686 412" fill="none" xmlns="http://www.w3.org/2000/svg">
<path d="M35.7914 411.079C35.7455 410.877 31.3072 390.66 40.3715 373.869C49.4357 357.078 68.7841 349.673 68.9785 349.6L69.8628 349.269L70.0717 350.189C70.1176 350.391 74.556 370.608 65.4917 387.4C56.4279 404.19 37.079 411.596 36.8846 411.669L35.9999 412L35.7914 411.079ZM68.6501 351.515C64.7745 353.181 49.4783 360.469 41.8228 374.65C34.1665 388.833 36.4765 405.606 37.213 409.753C41.0871 408.092 56.3772 400.815 64.0403 386.618C71.6962 372.436 69.3871 355.665 68.6501 351.515V351.515Z" fill="#F1F1F1"/>
<path d="M58.5649 381.51C42.276 391.299 36.0026 410.743 36.0026 410.743C36.0026 410.743 56.1388 414.316 72.4277 404.527C88.7166 394.737 94.99 375.293 94.99 375.293C94.99 375.293 74.8538 371.721 58.5649 381.51Z" fill="#F1F1F1"/>
<path d="M305.24 224.58C305.489 223.299 305.453 221.98 305.135 220.714C304.818 219.449 304.227 218.268 303.403 217.256C302.579 216.243 301.544 215.423 300.369 214.854C299.194 214.285 297.908 213.98 296.602 213.96L289.059 195.012L276.413 196.782L287.442 223.392C287.555 225.586 288.469 227.661 290.012 229.226C291.555 230.791 293.619 231.737 295.813 231.883C298.007 232.029 300.178 231.367 301.916 230.021C303.653 228.675 304.836 226.739 305.24 224.58Z" fill="#9F616A"/>
<path d="M281.943 217.922L278.024 208.588L253.607 162.16L254.935 76.2517L255.19 76.2179C270.814 74.1559 281.385 146.067 281.827 149.129L297.255 201.835L300.927 213.452L281.943 217.922Z" fill="#506690"/>
<path d="M244.424 399.074L256.296 399.073L261.943 353.332L244.422 353.332L244.424 399.074Z" fill="#9F616A"/>
<path d="M241.396 395.202L264.776 395.201H264.777C268.728 395.201 272.518 396.769 275.312 399.56C278.106 402.352 279.676 406.137 279.676 410.084V410.568L241.396 410.569L241.396 395.202Z" fill="#2F2E41"/>
<path d="M135.266 381.006L145.007 387.786L175.821 353.484L161.445 343.477L135.266 381.006Z" fill="#9F616A"/>
<path d="M134.998 376.1L154.18 389.452L154.181 389.452C157.423 391.709 159.634 395.16 160.329 399.046C161.024 402.932 160.145 406.934 157.886 410.172L157.609 410.569L126.203 388.708L134.998 376.1Z" fill="#2F2E41"/>
<path d="M237.899 388.322L237.386 302.514L229.917 248.559L215.99 296.008L215.963 296.047L165.494 369.236L145.856 359.297L145.964 359.041C147.164 356.19 175.443 289.221 183.044 289.221C183.708 289.268 184.373 289.152 184.982 288.885C185.592 288.617 186.127 288.206 186.541 287.686C188.772 284.71 186.955 278.396 186.937 278.332C184.761 269.319 190.232 266.25 191.322 265.737L194.252 205.301L194.556 205.322L274.012 210.889L270.678 286.451L263.508 385.451L263.261 385.479L237.899 388.322Z" fill="#2F2E41"/>
<path d="M275.226 224.281L274.882 224.253L189.43 217.373L189.641 189.13L193.823 115.386L193.847 115.335L210.879 78.3978L222.953 72.9365L240.569 72.0105L240.612 72.0213L256.689 75.9999L273.412 195.921L275.226 224.281Z" fill="#506690"/>
<path d="M243.33 62.5442C254.233 56.5906 258.239 42.9354 252.279 32.0444C246.319 21.1534 232.649 17.1508 221.746 23.1044C210.843 29.0579 206.836 42.7132 212.796 53.6042C218.756 64.4952 232.427 68.4978 243.33 62.5442Z" fill="#9F616A"/>
<path d="M209.911 48.4658V39.7094C209.911 39.7094 202.842 31.3926 210.618 29.2976C210.618 29.2976 212.739 8.34761 231.119 18.1243C231.119 18.1243 256.568 13.9343 253.741 28.5993C253.741 28.5993 260.103 24.7707 257.982 34.5474L253.881 50.2959C253.881 50.2959 255.862 39.8929 249.499 38.4962L245.965 36.4012C245.965 36.4012 236.068 46.1778 221.222 34.3062C221.222 34.3062 214.86 32.7893 215.567 39.0743C216.274 45.3593 209.911 48.4658 209.911 48.4658Z" fill="#2F2E41"/>
<path d="M230.195 203.19C230.21 201.886 229.937 200.594 229.398 199.406C228.858 198.218 228.064 197.162 227.072 196.314C226.08 195.466 224.914 194.845 223.656 194.495C222.397 194.146 221.078 194.076 219.789 194.292L208.965 177.003L196.842 181.011L212.472 205.212C212.978 207.35 214.25 209.228 216.049 210.491C217.848 211.754 220.048 212.314 222.233 212.065C224.418 211.815 226.435 210.774 227.902 209.139C229.37 207.503 230.186 205.386 230.195 203.19Z" fill="#9F616A"/>
<path d="M202.237 197.74L182.653 158.023L182.671 157.927C182.75 157.487 190.633 113.764 196.662 97.6927C202.729 81.5197 211.034 78.2725 211.385 78.1422L211.56 78.077L219.007 85.2121L208.691 153.989L219.811 187.16L202.237 197.74Z" fill="#506690"/>
<path d="M686 0H648.082V37.877H686V0Z" fill="#F1F1F1"/>
<path d="M389.247 147.391H351.328V185.268H389.247V147.391Z" fill="#F1F1F1"/>
<path d="M372.611 168.67H672.393V17.0726H372.611V168.67Z" fill="white"/>
<path d="M674.866 171.14H370.138V14.6023H674.866V171.14ZM375.084 166.2H669.921V19.5428H375.084V166.2Z" fill="#E5E5E5"/>
<path d="M639.243 70.2502H408.595V77.8908H639.243V70.2502Z" fill="#E5E5E5"/>
<path d="M639.243 88.7795H408.595V96.4201H639.243V88.7795Z" fill="#E5E5E5"/>
<path d="M639.243 116.139H596.379V122.769H639.243V116.139Z" fill="#506690"/>
<path d="M314.888 411.967H0.824315C0.605693 411.967 0.396025 411.88 0.241436 411.726C0.0868466 411.571 0 411.362 0 411.143C0 410.925 0.0868466 410.715 0.241436 410.561C0.396025 410.407 0.605693 410.32 0.824315 410.32H314.888C315.107 410.32 315.317 410.407 315.471 410.561C315.626 410.715 315.713 410.925 315.713 411.143C315.713 411.362 315.626 411.571 315.471 411.726C315.317 411.88 315.107 411.967 314.888 411.967Z" fill="#CBCBCB"/>
</svg>
