<svg xmlns="http://www.w3.org/2000/svg" width="27" height="34" fill="none" viewBox="0 0 27 34"><path fill="#E0E6ED" fill-rule="evenodd" d="M15.5189 0.0420009C17.716 0.0396235 19.886 0.526081 21.8717 1.46612C23.8575 2.40615 25.6092 3.77621 26.9999 5.477L22.3349 9.3C21.1897 7.90072 19.6416 6.88773 17.9008 6.39854C16.16 5.90935 14.3109 5.96765 12.6043 6.56553C10.8978 7.16341 9.41662 8.27191 8.36178 9.74056C7.30693 11.2092 6.72954 12.9669 6.70797 14.775C6.68641 16.583 7.22173 18.354 8.24125 19.8474C9.26078 21.3407 10.7151 22.4843 12.4069 23.1227C14.0987 23.7611 15.9459 23.8634 17.6979 23.4159C19.4498 22.9684 21.0216 21.9926 22.1999 20.621L26.7689 24.553C25.1445 26.4488 23.0669 27.9029 20.7294 28.7799C18.3919 29.6569 15.8705 29.9284 13.3999 29.569C13.3999 29.569 10.3999 33.639 9.82794 33.478C9.25594 33.317 7.74994 27.524 7.74994 27.524C4.99756 25.831 2.87295 23.2859 1.69885 20.2753C0.524758 17.2648 0.365334 13.9533 1.2448 10.8438C2.12427 7.73441 3.99457 4.99699 6.57159 3.0474C9.14862 1.0978 12.2915 0.0425731 15.5229 0.0420009H15.5189Z" clip-rule="evenodd"/></svg>